# xmcd
#
# Track frame offsets:
#	150
#	15461
#	30166
#	42196
#	55531
#	71973
#	84183
#	98506
#	116798
#	127818
#	141648
#	157636
#	168058
#	180516
#	194311
#	210866
#	225741
#	236858
#	249996
#	264486
#	281623
#	292456
#	310269
#
# Disc length: 4265 seconds
#
# Revision: 0
# Processed by: cddbd v1.5PL3 Copyright (c) Steve Scherf et al.
# Submitted via: dBpowerAMP V4.0
#
DISCID=3010a717
DTITLE=Billy Swan - Like Elvis Used To Be
DYEAR=1900
DGENRE=Country
TTITLE0=Mystery Train
TTITLE1=Milkcow Blues Boogie
TTITLE2=My Baby Left Me
TTITLE3=Mean Woman Blues
TTITLE4=Blue Moon Of Kentucky
TTITLE5=All Shook Up
TTITLE6=Heartbreak Hotel
TTITLE7=Hound Dog
TTITLE8=Wooden Heart
TTITLE9=Teddy Bear Medley
TTITLE10=I Want You, I Need You, I Love You
TTITLE11=Viva Las Vegas
TTITLE12=Suspicious Minds
TTITLE13=Burning Love
TTITLE14=Medley
TTITLE15=Tou're So Square Baby, I Dont Care
TTITLE16=Too Much
TTITLE17=I Used To Be James Dean
TTITLE18=When My Blue Moon Turns To Gold Again
TTITLE19=Love Me Tender
TTITLE20=Memphis Rocks
TTITLE21=That's All Right Mama
TTITLE22=Sun Medley
EXTD=
EXTT0=
EXTT1=
EXTT2=
EXTT3=
EXTT4=
EXTT5=
EXTT6=
EXTT7=
EXTT8=
EXTT9=
EXTT10=
EXTT11=
EXTT12=
EXTT13=
EXTT14=
EXTT15=
EXTT16=
EXTT17=
EXTT18=
EXTT19=
EXTT20=
EXTT21=
EXTT22=
PLAYORDER=
